<svg width="400" height="290" viewBox="0 0 400 290" fill="none" xmlns="http://www.w3.org/2000/svg">
<g clip-path="url(#clip0_2_2)">
<rect width="400" height="290" fill="#E2E2E2"/>
<g filter="url(#filter0_ddddd_2_2)">
<circle cx="90" cy="132" r="64" fill="#DCDCDC"/>
<circle cx="309" cy="132" r="64" fill="#DCDCDC"/>
<rect x="178" y="246" width="113" height="31" rx="7" fill="#DCDCDC"/>
<g filter="url(#filter1_ddddd_2_2)">
<path d="M144.8 50.48C142.693 50.48 140.733 50.0933 138.92 49.32C137.133 48.5467 135.573 47.48 134.24 46.12C132.933 44.7333 131.907 43.1067 131.16 41.24C130.413 39.3733 130.04 37.32 130.04 35.08C130.04 32.8667 130.4 30.8267 131.12 28.96C131.867 27.0667 132.907 25.44 134.24 24.08C135.573 22.6933 137.133 21.6267 138.92 20.88C140.707 20.1067 142.667 19.72 144.8 19.72C146.907 19.72 148.787 20.08 150.44 20.8C152.12 21.52 153.533 22.4667 154.68 23.64C155.827 24.7867 156.653 26.04 157.16 27.4L152.92 29.4C152.28 27.8 151.253 26.5067 149.84 25.52C148.453 24.5067 146.773 24 144.8 24C142.827 24 141.08 24.4667 139.56 25.4C138.04 26.3333 136.853 27.6267 136 29.28C135.173 30.9333 134.76 32.8667 134.76 35.08C134.76 37.2933 135.173 39.24 136 40.92C136.853 42.5733 138.04 43.8667 139.56 44.8C141.08 45.7067 142.827 46.16 144.8 46.16C146.773 46.16 148.453 45.6667 149.84 44.68C151.253 43.6933 152.28 42.4 152.92 40.8L157.16 42.8C156.653 44.1333 155.827 45.3867 154.68 46.56C153.533 47.7333 152.12 48.68 150.44 49.4C148.787 50.12 146.907 50.48 144.8 50.48ZM161.574 50V19.72H166.094V50H161.574ZM171.378 50V28.36H175.898V50H171.378ZM171.378 25.4V20.2H175.898V25.4H171.378ZM181.183 58V28.36H185.503V32.84L184.983 31.8C185.783 30.5733 186.85 29.6133 188.183 28.92C189.516 28.2267 191.036 27.88 192.743 27.88C194.796 27.88 196.636 28.3733 198.263 29.36C199.916 30.3467 201.21 31.6933 202.143 33.4C203.103 35.1067 203.583 37.0267 203.583 39.16C203.583 41.2933 203.103 43.2133 202.143 44.92C201.21 46.6267 199.93 47.9867 198.303 49C196.676 49.9867 194.823 50.48 192.743 50.48C191.063 50.48 189.53 50.1333 188.143 49.44C186.783 48.7467 185.73 47.7467 184.983 46.44L185.703 45.6V58H181.183ZM192.303 46.28C193.583 46.28 194.716 45.9733 195.703 45.36C196.69 44.7467 197.463 43.9067 198.023 42.84C198.61 41.7467 198.903 40.52 198.903 39.16C198.903 37.8 198.61 36.5867 198.023 35.52C197.463 34.4533 196.69 33.6133 195.703 33C194.716 32.3867 193.583 32.08 192.303 32.08C191.05 32.08 189.916 32.3867 188.903 33C187.916 33.6133 187.13 34.4533 186.543 35.52C185.983 36.5867 185.703 37.8 185.703 39.16C185.703 40.52 185.983 41.7467 186.543 42.84C187.13 43.9067 187.916 44.7467 188.903 45.36C189.916 45.9733 191.05 46.28 192.303 46.28ZM207.98 58V28.36H212.3V32.84L211.78 31.8C212.58 30.5733 213.647 29.6133 214.98 28.92C216.313 28.2267 217.833 27.88 219.54 27.88C221.593 27.88 223.433 28.3733 225.06 29.36C226.713 30.3467 228.007 31.6933 228.94 33.4C229.9 35.1067 230.38 37.0267 230.38 39.16C230.38 41.2933 229.9 43.2133 228.94 44.92C228.007 46.6267 226.727 47.9867 225.1 49C223.473 49.9867 221.62 50.48 219.54 50.48C217.86 50.48 216.327 50.1333 214.94 49.44C213.58 48.7467 212.527 47.7467 211.78 46.44L212.5 45.6V58H207.98ZM219.1 46.28C220.38 46.28 221.513 45.9733 222.5 45.36C223.487 44.7467 224.26 43.9067 224.82 42.84C225.407 41.7467 225.7 40.52 225.7 39.16C225.7 37.8 225.407 36.5867 224.82 35.52C224.26 34.4533 223.487 33.6133 222.5 33C221.513 32.3867 220.38 32.08 219.1 32.08C217.847 32.08 216.713 32.3867 215.7 33C214.713 33.6133 213.927 34.4533 213.34 35.52C212.78 36.5867 212.5 37.8 212.5 39.16C212.5 40.52 212.78 41.7467 213.34 42.84C213.927 43.9067 214.713 44.7467 215.7 45.36C216.713 45.9733 217.847 46.28 219.1 46.28ZM244.937 50.48C242.777 50.48 240.857 49.9867 239.177 49C237.523 47.9867 236.23 46.6267 235.297 44.92C234.363 43.1867 233.897 41.2533 233.897 39.12C233.897 36.9333 234.363 35 235.297 33.32C236.257 31.64 237.537 30.32 239.137 29.36C240.737 28.3733 242.55 27.88 244.577 27.88C246.203 27.88 247.657 28.16 248.937 28.72C250.217 29.28 251.297 30.0533 252.177 31.04C253.057 32 253.723 33.1067 254.177 34.36C254.657 35.6133 254.897 36.9467 254.897 38.36C254.897 38.7067 254.883 39.0667 254.857 39.44C254.83 39.8133 254.777 40.16 254.697 40.48H237.457V36.88H252.137L249.977 38.52C250.243 37.2133 250.15 36.0533 249.697 35.04C249.27 34 248.603 33.1867 247.697 32.6C246.817 31.9867 245.777 31.68 244.577 31.68C243.377 31.68 242.31 31.9867 241.377 32.6C240.443 33.1867 239.723 34.04 239.217 35.16C238.71 36.2533 238.51 37.5867 238.617 39.16C238.483 40.6267 238.683 41.9067 239.217 43C239.777 44.0933 240.55 44.9467 241.537 45.56C242.55 46.1733 243.697 46.48 244.977 46.48C246.283 46.48 247.39 46.1867 248.297 45.6C249.23 45.0133 249.963 44.2533 250.497 43.32L254.177 45.12C253.75 46.1333 253.083 47.0533 252.177 47.88C251.297 48.68 250.23 49.32 248.977 49.8C247.75 50.2533 246.403 50.48 244.937 50.48ZM259.308 50V28.36H263.628V32.72L263.228 32.08C263.708 30.6667 264.481 29.6533 265.548 29.04C266.615 28.4 267.895 28.08 269.388 28.08H270.708V32.2H268.828C267.335 32.2 266.121 32.6667 265.188 33.6C264.281 34.5067 263.828 35.8133 263.828 37.52V50H259.308Z" fill="#D8D7D7"/>
</g>
</g>
</g>
<defs>
<filter id="filter0_ddddd_2_2" x="4" y="15.72" width="391" height="363.28" filterUnits="userSpaceOnUse" color-interpolation-filters="sRGB">
<feFlood flood-opacity="0" result="BackgroundImageFix"/>
<feColorMatrix in="SourceAlpha" type="matrix" values="0 0 0 0 0 0 0 0 0 0 0 0 0 0 0 0 0 0 127 0" result="hardAlpha"/>
<feOffset dy="3"/>
<feGaussianBlur stdDeviation="3.5"/>
<feColorMatrix type="matrix" values="0 0 0 0 0.360784 0 0 0 0 0.427451 0 0 0 0 0.756863 0 0 0 0.31 0"/>
<feBlend mode="normal" in2="BackgroundImageFix" result="effect1_dropShadow_2_2"/>
<feColorMatrix in="SourceAlpha" type="matrix" values="0 0 0 0 0 0 0 0 0 0 0 0 0 0 0 0 0 0 127 0" result="hardAlpha"/>
<feOffset dy="13"/>
<feGaussianBlur stdDeviation="6.5"/>
<feColorMatrix type="matrix" values="0 0 0 0 0.360784 0 0 0 0 0.427451 0 0 0 0 0.756863 0 0 0 0.27 0"/>
<feBlend mode="normal" in2="effect1_dropShadow_2_2" result="effect2_dropShadow_2_2"/>
<feColorMatrix in="SourceAlpha" type="matrix" values="0 0 0 0 0 0 0 0 0 0 0 0 0 0 0 0 0 0 127 0" result="hardAlpha"/>
<feOffset dy="29"/>
<feGaussianBlur stdDeviation="8.5"/>
<feColorMatrix type="matrix" values="0 0 0 0 0.360784 0 0 0 0 0.427451 0 0 0 0 0.756863 0 0 0 0.16 0"/>
<feBlend mode="normal" in2="effect2_dropShadow_2_2" result="effect3_dropShadow_2_2"/>
<feColorMatrix in="SourceAlpha" type="matrix" values="0 0 0 0 0 0 0 0 0 0 0 0 0 0 0 0 0 0 127 0" result="hardAlpha"/>
<feOffset dy="51"/>
<feGaussianBlur stdDeviation="10"/>
<feColorMatrix type="matrix" values="0 0 0 0 0.360784 0 0 0 0 0.427451 0 0 0 0 0.756863 0 0 0 0.05 0"/>
<feBlend mode="normal" in2="effect3_dropShadow_2_2" result="effect4_dropShadow_2_2"/>
<feColorMatrix in="SourceAlpha" type="matrix" values="0 0 0 0 0 0 0 0 0 0 0 0 0 0 0 0 0 0 127 0" result="hardAlpha"/>
<feOffset dy="80"/>
<feGaussianBlur stdDeviation="11"/>
<feColorMatrix type="matrix" values="0 0 0 0 0.360784 0 0 0 0 0.427451 0 0 0 0 0.756863 0 0 0 0.01 0"/>
<feBlend mode="normal" in2="effect4_dropShadow_2_2" result="effect5_dropShadow_2_2"/>
<feBlend mode="normal" in="SourceGraphic" in2="effect5_dropShadow_2_2" result="shape"/>
</filter>
<filter id="filter1_ddddd_2_2" x="124.04" y="18.72" width="152.668" height="65.28" filterUnits="userSpaceOnUse" color-interpolation-filters="sRGB">
<feFlood flood-opacity="0" result="BackgroundImageFix"/>
<feColorMatrix in="SourceAlpha" type="matrix" values="0 0 0 0 0 0 0 0 0 0 0 0 0 0 0 0 0 0 127 0" result="hardAlpha"/>
<feOffset dy="1"/>
<feGaussianBlur stdDeviation="1"/>
<feColorMatrix type="matrix" values="0 0 0 0 0.360784 0 0 0 0 0.427451 0 0 0 0 0.756863 0 0 0 0.39 0"/>
<feBlend mode="normal" in2="BackgroundImageFix" result="effect1_dropShadow_2_2"/>
<feColorMatrix in="SourceAlpha" type="matrix" values="0 0 0 0 0 0 0 0 0 0 0 0 0 0 0 0 0 0 127 0" result="hardAlpha"/>
<feOffset dy="3"/>
<feGaussianBlur stdDeviation="1.5"/>
<feColorMatrix type="matrix" values="0 0 0 0 0.360784 0 0 0 0 0.427451 0 0 0 0 0.756863 0 0 0 0.34 0"/>
<feBlend mode="normal" in2="effect1_dropShadow_2_2" result="effect2_dropShadow_2_2"/>
<feColorMatrix in="SourceAlpha" type="matrix" values="0 0 0 0 0 0 0 0 0 0 0 0 0 0 0 0 0 0 127 0" result="hardAlpha"/>
<feOffset dy="7"/>
<feGaussianBlur stdDeviation="2"/>
<feColorMatrix type="matrix" values="0 0 0 0 0.360784 0 0 0 0 0.427451 0 0 0 0 0.756863 0 0 0 0.2 0"/>
<feBlend mode="normal" in2="effect2_dropShadow_2_2" result="effect3_dropShadow_2_2"/>
<feColorMatrix in="SourceAlpha" type="matrix" values="0 0 0 0 0 0 0 0 0 0 0 0 0 0 0 0 0 0 127 0" result="hardAlpha"/>
<feOffset dy="13"/>
<feGaussianBlur stdDeviation="2.5"/>
<feColorMatrix type="matrix" values="0 0 0 0 0.360784 0 0 0 0 0.427451 0 0 0 0 0.756863 0 0 0 0.06 0"/>
<feBlend mode="normal" in2="effect3_dropShadow_2_2" result="effect4_dropShadow_2_2"/>
<feColorMatrix in="SourceAlpha" type="matrix" values="0 0 0 0 0 0 0 0 0 0 0 0 0 0 0 0 0 0 127 0" result="hardAlpha"/>
<feOffset dy="20"/>
<feGaussianBlur stdDeviation="3"/>
<feColorMatrix type="matrix" values="0 0 0 0 0.360784 0 0 0 0 0.427451 0 0 0 0 0.756863 0 0 0 0.01 0"/>
<feBlend mode="normal" in2="effect4_dropShadow_2_2" result="effect5_dropShadow_2_2"/>
<feBlend mode="normal" in="SourceGraphic" in2="effect5_dropShadow_2_2" result="shape"/>
</filter>
<clipPath id="clip0_2_2">
<rect width="400" height="290" fill="white"/>
</clipPath>
</defs>
</svg>
